<svg xmlns="http://www.w3.org/2000/svg" width="1600" height="900" viewBox="0 0 1600 900">
<rect width="1600" height="900" fill="#ffffff"/>
<text x="56.0" y="64.0" font-family="'Helvetica Neue', Helvetica, Arial, sans-serif" font-size="30" fill="#22262b" font-weight="600" font-style="normal" text-anchor="start" letter-spacing="0">Hosts and parasites in OrthoHPI 2.0</text>
<text x="56.0" y="92.0" font-family="'Helvetica Neue', Helvetica, Arial, sans-serif" font-size="17" fill="#6b737c" font-weight="normal" font-style="normal" text-anchor="start" letter-spacing="0">45 parasite species in 4 host species</text>
<text x="56.0" y="126.0" font-family="'Helvetica Neue', Helvetica, Arial, sans-serif" font-size="13" fill="#6b737c" font-weight="600" font-style="normal" text-anchor="start" letter-spacing="1.6">HOSTS</text>
<rect x="56.0" y="138" width="357.0" height="104" rx="14" fill="#0072B2" opacity="0.08"/>
<rect x="56.0" y="152" width="5" height="76" rx="2.5" fill="#0072B2"/>
<text x="84.0" y="180.0" font-family="'Helvetica Neue', Helvetica, Arial, sans-serif" font-size="22" fill="#22262b" font-weight="600" font-style="normal" text-anchor="start" letter-spacing="0">Human</text>
<text x="84.0" y="204.0" font-family="'Helvetica Neue', Helvetica, Arial, sans-serif" font-size="14.5" fill="#6b737c" font-weight="normal" font-style="italic" text-anchor="start" letter-spacing="0">Homo sapiens (human)</text>
<text x="84.0" y="236.0" font-family="'Helvetica Neue', Helvetica, Arial, sans-serif" font-size="15" fill="#0072B2" font-weight="600" font-style="normal" text-anchor="start" letter-spacing="0">42 parasites</text>
<rect x="433.0" y="138" width="357.0" height="104" rx="14" fill="#D55E00" opacity="0.08"/>
<rect x="433.0" y="152" width="5" height="76" rx="2.5" fill="#D55E00"/>
<text x="461.0" y="180.0" font-family="'Helvetica Neue', Helvetica, Arial, sans-serif" font-size="22" fill="#22262b" font-weight="600" font-style="normal" text-anchor="start" letter-spacing="0">Rat</text>
<text x="461.0" y="204.0" font-family="'Helvetica Neue', Helvetica, Arial, sans-serif" font-size="14.5" fill="#6b737c" font-weight="normal" font-style="italic" text-anchor="start" letter-spacing="0">Rattus norvegicus (rat)</text>
<text x="461.0" y="236.0" font-family="'Helvetica Neue', Helvetica, Arial, sans-serif" font-size="15" fill="#D55E00" font-weight="600" font-style="normal" text-anchor="start" letter-spacing="0">5 parasites</text>
<rect x="810.0" y="138" width="357.0" height="104" rx="14" fill="#009E73" opacity="0.08"/>
<rect x="810.0" y="152" width="5" height="76" rx="2.5" fill="#009E73"/>
<text x="838.0" y="180.0" font-family="'Helvetica Neue', Helvetica, Arial, sans-serif" font-size="22" fill="#22262b" font-weight="600" font-style="normal" text-anchor="start" letter-spacing="0">Mouse</text>
<text x="838.0" y="204.0" font-family="'Helvetica Neue', Helvetica, Arial, sans-serif" font-size="14.5" fill="#6b737c" font-weight="normal" font-style="italic" text-anchor="start" letter-spacing="0">Mus musculus (mouse)</text>
<text x="838.0" y="236.0" font-family="'Helvetica Neue', Helvetica, Arial, sans-serif" font-size="15" fill="#009E73" font-weight="600" font-style="normal" text-anchor="start" letter-spacing="0">5 parasites</text>
<rect x="1187.0" y="138" width="357.0" height="104" rx="14" fill="#CC79A7" opacity="0.08"/>
<rect x="1187.0" y="152" width="5" height="76" rx="2.5" fill="#CC79A7"/>
<text x="1215.0" y="180.0" font-family="'Helvetica Neue', Helvetica, Arial, sans-serif" font-size="22" fill="#22262b" font-weight="600" font-style="normal" text-anchor="start" letter-spacing="0">Pig</text>
<text x="1215.0" y="204.0" font-family="'Helvetica Neue', Helvetica, Arial, sans-serif" font-size="14.5" fill="#6b737c" font-weight="normal" font-style="italic" text-anchor="start" letter-spacing="0">Sus scrofa (pig)</text>
<text x="1215.0" y="236.0" font-family="'Helvetica Neue', Helvetica, Arial, sans-serif" font-size="15" fill="#CC79A7" font-weight="600" font-style="normal" text-anchor="start" letter-spacing="0">2 parasites</text>
<text x="56.0" y="282.0" font-family="'Helvetica Neue', Helvetica, Arial, sans-serif" font-size="13" fill="#6b737c" font-weight="600" font-style="normal" text-anchor="start" letter-spacing="1.6">PARASITES</text>
<rect x="56" y="298" width="582.0" height="400" rx="14" fill="#f6f7f9" stroke="#e2e5e9"/>
<rect x="56" y="298" width="582.0" height="5" rx="2.5" fill="#0072B2"/>
<g transform="translate(70.0,314.0) scale(0.4600)"><path d="M4.17,62.96 L5.23,65.32 L6.33,67.58 L7.50,69.75 L8.77,71.82 L10.16,73.77 L11.75,75.61 L13.61,77.30 L15.81,78.76 L18.39,79.87 L21.27,80.50 L24.28,80.55 L27.19,79.96 L29.83,78.85 L32.20,77.43 L34.33,75.80 L36.28,74.00 L38.08,72.07 L39.78,70.01 L41.39,67.86 L42.94,65.61 L44.43,63.30 L45.88,60.94 L47.29,58.55 L48.66,56.16 L49.99,53.80 L51.28,51.49 L52.54,49.27 L53.76,47.16 L54.92,45.19 L56.03,43.40 L57.07,41.81 L58.02,40.46 L58.85,39.36 L59.53,38.55 L60.00,38.01 L60.20,37.73 L60.11,37.62 L59.73,37.58 L59.20,37.48 L58.73,37.27 L58.52,37.02 L58.74,36.76 L59.48,36.57 L60.54,36.73 L61.83,37.25 L63.27,38.09 L64.82,39.24 L66.44,40.64 L68.09,42.26 L69.77,44.06 L71.47,46.01 L73.16,48.06 L74.85,50.19 L76.53,52.36 L78.20,54.54 L79.85,56.69 L81.48,58.80 L83.08,60.82 L84.65,62.73 L86.20,64.51 L87.71,66.13 L89.18,67.58 L90.61,68.83 L92.00,69.88 L92.00,69.88 L90.77,68.67 L89.57,67.22 L88.42,65.56 L87.30,63.71 L86.22,61.69 L85.17,59.51 L84.15,57.21 L83.15,54.80 L82.18,52.31 L81.22,49.77 L80.27,47.19 L79.34,44.60 L78.41,42.02 L77.48,39.47 L76.53,36.97 L75.56,34.53 L74.55,32.16 L73.48,29.87 L72.30,27.65 L70.96,25.52 L69.40,23.46 L67.51,21.52 L65.11,19.99 L62.27,18.99 L59.18,18.52 L56.02,18.68 L53.02,19.40 L50.30,20.57 L47.88,22.04 L45.72,23.73 L43.77,25.57 L41.98,27.55 L40.30,29.64 L38.72,31.82 L37.20,34.09 L35.74,36.43 L34.33,38.82 L32.97,41.23 L31.64,43.64 L30.34,46.03 L29.09,48.37 L27.87,50.62 L26.69,52.77 L25.56,54.78 L24.48,56.61 L23.47,58.26 L22.54,59.67 L21.72,60.84 L21.04,61.73 L20.55,62.36 L20.29,62.73 L20.31,62.93 L20.60,63.15 L20.98,63.50 L21.24,63.91 L21.19,64.30 L20.76,64.54 L20.00,64.51 L18.96,64.17 L17.73,63.51 L16.37,62.54 L14.92,61.30 L13.40,59.82 L11.83,58.13 Z" fill="#0072B2"/><circle cx="12" cy="59" r="2.6" fill="#ffffff" opacity="0.85"/></g>
<text x="128.0" y="338.0" font-family="'Helvetica Neue', Helvetica, Arial, sans-serif" font-size="19" fill="#22262b" font-weight="600" font-style="normal" text-anchor="start" letter-spacing="0">Nematoda</text>
<text x="128.0" y="356.0" font-family="'Helvetica Neue', Helvetica, Arial, sans-serif" font-size="12.5" fill="#6b737c" font-weight="normal" font-style="normal" text-anchor="start" letter-spacing="0">roundworms</text>
<text x="622.0" y="342.0" font-family="'Helvetica Neue', Helvetica, Arial, sans-serif" font-size="23" fill="#0072B2" font-weight="700" font-style="normal" text-anchor="end" letter-spacing="0">19</text>
<circle cx="75.0" cy="377.5" r="4.6" fill="#0072B2"/>
<text x="124.0" y="382.0" font-family="'Helvetica Neue', Helvetica, Arial, sans-serif" font-size="14.5" fill="#22262b" font-weight="normal" font-style="italic" text-anchor="start" letter-spacing="0">Ancylostoma ceylanicum</text>
<circle cx="86.0" cy="407.5" r="4.6" fill="#D55E00"/>
<circle cx="97.0" cy="407.5" r="4.6" fill="#009E73"/>
<text x="124.0" y="412.0" font-family="'Helvetica Neue', Helvetica, Arial, sans-serif" font-size="14.5" fill="#22262b" font-weight="normal" font-style="italic" text-anchor="start" letter-spacing="0">Angiostrongylus cantonensis</text>
<circle cx="86.0" cy="437.5" r="4.6" fill="#D55E00"/>
<circle cx="97.0" cy="437.5" r="4.6" fill="#009E73"/>
<text x="124.0" y="442.0" font-family="'Helvetica Neue', Helvetica, Arial, sans-serif" font-size="14.5" fill="#22262b" font-weight="normal" font-style="italic" text-anchor="start" letter-spacing="0">Angiostrongylus costaricensis</text>
<circle cx="75.0" cy="467.5" r="4.6" fill="#0072B2"/>
<text x="124.0" y="472.0" font-family="'Helvetica Neue', Helvetica, Arial, sans-serif" font-size="14.5" fill="#22262b" font-weight="normal" font-style="italic" text-anchor="start" letter-spacing="0">Brugia malayi</text>
<circle cx="75.0" cy="497.5" r="4.6" fill="#0072B2"/>
<text x="124.0" y="502.0" font-family="'Helvetica Neue', Helvetica, Arial, sans-serif" font-size="14.5" fill="#22262b" font-weight="normal" font-style="italic" text-anchor="start" letter-spacing="0">Brugia timori</text>
<circle cx="75.0" cy="527.5" r="4.6" fill="#0072B2"/>
<text x="124.0" y="532.0" font-family="'Helvetica Neue', Helvetica, Arial, sans-serif" font-size="14.5" fill="#22262b" font-weight="normal" font-style="italic" text-anchor="start" letter-spacing="0">Dracunculus medinensis</text>
<circle cx="75.0" cy="557.5" r="4.6" fill="#0072B2"/>
<text x="124.0" y="562.0" font-family="'Helvetica Neue', Helvetica, Arial, sans-serif" font-size="14.5" fill="#22262b" font-weight="normal" font-style="italic" text-anchor="start" letter-spacing="0">Enterobius vermicularis</text>
<circle cx="75.0" cy="587.5" r="4.6" fill="#0072B2"/>
<text x="124.0" y="592.0" font-family="'Helvetica Neue', Helvetica, Arial, sans-serif" font-size="14.5" fill="#22262b" font-weight="normal" font-style="italic" text-anchor="start" letter-spacing="0">Loa loa</text>
<circle cx="75.0" cy="617.5" r="4.6" fill="#0072B2"/>
<text x="124.0" y="622.0" font-family="'Helvetica Neue', Helvetica, Arial, sans-serif" font-size="14.5" fill="#22262b" font-weight="normal" font-style="italic" text-anchor="start" letter-spacing="0">Necator americanus</text>
<circle cx="75.0" cy="647.5" r="4.6" fill="#0072B2"/>
<text x="124.0" y="652.0" font-family="'Helvetica Neue', Helvetica, Arial, sans-serif" font-size="14.5" fill="#22262b" font-weight="normal" font-style="italic" text-anchor="start" letter-spacing="0">Onchocerca volvulus</text>
<circle cx="354.0" cy="377.5" r="4.6" fill="#0072B2"/>
<text x="403.0" y="382.0" font-family="'Helvetica Neue', Helvetica, Arial, sans-serif" font-size="14.5" fill="#22262b" font-weight="normal" font-style="italic" text-anchor="start" letter-spacing="0">Strongyloides stercoralis</text>
<circle cx="354.0" cy="407.5" r="4.6" fill="#0072B2"/>
<text x="403.0" y="412.0" font-family="'Helvetica Neue', Helvetica, Arial, sans-serif" font-size="14.5" fill="#22262b" font-weight="normal" font-style="italic" text-anchor="start" letter-spacing="0">Toxocara canis</text>
<circle cx="354.0" cy="437.5" r="4.6" fill="#0072B2"/>
<text x="403.0" y="442.0" font-family="'Helvetica Neue', Helvetica, Arial, sans-serif" font-size="14.5" fill="#22262b" font-weight="normal" font-style="italic" text-anchor="start" letter-spacing="0">Trichinella britovi</text>
<circle cx="354.0" cy="467.5" r="4.6" fill="#0072B2"/>
<text x="403.0" y="472.0" font-family="'Helvetica Neue', Helvetica, Arial, sans-serif" font-size="14.5" fill="#22262b" font-weight="normal" font-style="italic" text-anchor="start" letter-spacing="0">Trichinella nativa</text>
<circle cx="354.0" cy="497.5" r="4.6" fill="#0072B2"/>
<text x="403.0" y="502.0" font-family="'Helvetica Neue', Helvetica, Arial, sans-serif" font-size="14.5" fill="#22262b" font-weight="normal" font-style="italic" text-anchor="start" letter-spacing="0">Trichinella nelsoni</text>
<circle cx="354.0" cy="527.5" r="4.6" fill="#0072B2"/>
<circle cx="387.0" cy="527.5" r="4.6" fill="#CC79A7"/>
<text x="403.0" y="532.0" font-family="'Helvetica Neue', Helvetica, Arial, sans-serif" font-size="14.5" fill="#22262b" font-weight="normal" font-style="italic" text-anchor="start" letter-spacing="0">Trichinella pseudospiralis</text>
<circle cx="354.0" cy="557.5" r="4.6" fill="#0072B2"/>
<circle cx="387.0" cy="557.5" r="4.6" fill="#CC79A7"/>
<text x="403.0" y="562.0" font-family="'Helvetica Neue', Helvetica, Arial, sans-serif" font-size="14.5" fill="#22262b" font-weight="normal" font-style="italic" text-anchor="start" letter-spacing="0">Trichinella spiralis</text>
<circle cx="354.0" cy="587.5" r="4.6" fill="#0072B2"/>
<text x="403.0" y="592.0" font-family="'Helvetica Neue', Helvetica, Arial, sans-serif" font-size="14.5" fill="#22262b" font-weight="normal" font-style="italic" text-anchor="start" letter-spacing="0">Trichuris trichiura</text>
<circle cx="354.0" cy="617.5" r="4.6" fill="#0072B2"/>
<text x="403.0" y="622.0" font-family="'Helvetica Neue', Helvetica, Arial, sans-serif" font-size="14.5" fill="#22262b" font-weight="normal" font-style="italic" text-anchor="start" letter-spacing="0">Wuchereria bancrofti</text>
<rect x="660.0" y="298" width="280.0" height="280" rx="14" fill="#f6f7f9" stroke="#e2e5e9"/>
<rect x="660.0" y="298" width="280.0" height="5" rx="2.5" fill="#D55E00"/>
<g transform="translate(674.0,314.0) scale(0.4600)"><path d="M50,6 C60,10 70,22 74,40 C80,64 72,88 50,95 C28,88 20,64 26,40 C30,22 40,10 50,6 Z" fill="#D55E00"/><circle cx="50" cy="19" r="5.5" fill="none" stroke="#ffffff" stroke-width="3.2" opacity="0.95"/><circle cx="50" cy="44" r="8" fill="none" stroke="#ffffff" stroke-width="3.4" opacity="0.95"/><path d="M50,56 C40,66 37,80 40,92 M50,56 C60,66 63,80 60,92" stroke="#ffffff" stroke-width="3" fill="none" opacity="0.6" stroke-linecap="round"/></g>
<text x="732.0" y="338.0" font-family="'Helvetica Neue', Helvetica, Arial, sans-serif" font-size="19" fill="#22262b" font-weight="600" font-style="normal" text-anchor="start" letter-spacing="0">Trematoda</text>
<text x="732.0" y="356.0" font-family="'Helvetica Neue', Helvetica, Arial, sans-serif" font-size="12.5" fill="#6b737c" font-weight="normal" font-style="normal" text-anchor="start" letter-spacing="0">flukes</text>
<text x="924.0" y="342.0" font-family="'Helvetica Neue', Helvetica, Arial, sans-serif" font-size="23" fill="#D55E00" font-weight="700" font-style="normal" text-anchor="end" letter-spacing="0">6</text>
<circle cx="679.0" cy="377.5" r="4.6" fill="#0072B2"/>
<text x="728.0" y="382.0" font-family="'Helvetica Neue', Helvetica, Arial, sans-serif" font-size="14.5" fill="#22262b" font-weight="normal" font-style="italic" text-anchor="start" letter-spacing="0">Clonorchis sinensis</text>
<circle cx="679.0" cy="407.5" r="4.6" fill="#0072B2"/>
<text x="728.0" y="412.0" font-family="'Helvetica Neue', Helvetica, Arial, sans-serif" font-size="14.5" fill="#22262b" font-weight="normal" font-style="italic" text-anchor="start" letter-spacing="0">Opisthorchis felineus</text>
<circle cx="679.0" cy="437.5" r="4.6" fill="#0072B2"/>
<text x="728.0" y="442.0" font-family="'Helvetica Neue', Helvetica, Arial, sans-serif" font-size="14.5" fill="#22262b" font-weight="normal" font-style="italic" text-anchor="start" letter-spacing="0">Opisthorchis viverrini</text>
<circle cx="679.0" cy="467.5" r="4.6" fill="#0072B2"/>
<text x="728.0" y="472.0" font-family="'Helvetica Neue', Helvetica, Arial, sans-serif" font-size="14.5" fill="#22262b" font-weight="normal" font-style="italic" text-anchor="start" letter-spacing="0">Schistosoma haematobium</text>
<circle cx="679.0" cy="497.5" r="4.6" fill="#0072B2"/>
<text x="728.0" y="502.0" font-family="'Helvetica Neue', Helvetica, Arial, sans-serif" font-size="14.5" fill="#22262b" font-weight="normal" font-style="italic" text-anchor="start" letter-spacing="0">Schistosoma japonicum</text>
<circle cx="679.0" cy="527.5" r="4.6" fill="#0072B2"/>
<text x="728.0" y="532.0" font-family="'Helvetica Neue', Helvetica, Arial, sans-serif" font-size="14.5" fill="#22262b" font-weight="normal" font-style="italic" text-anchor="start" letter-spacing="0">Schistosoma mansoni</text>
<rect x="660.0" y="598" width="280.0" height="220" rx="14" fill="#f6f7f9" stroke="#e2e5e9"/>
<rect x="660.0" y="598" width="280.0" height="5" rx="2.5" fill="#E69F00"/>
<g transform="translate(674.0,614.0) scale(0.4600)"><circle cx="13" cy="50" r="9" fill="#E69F00"/><circle cx="10" cy="45" r="2.6" fill="#ffffff" opacity="0.9"/><circle cx="10" cy="55" r="2.6" fill="#ffffff" opacity="0.9"/><path d="M20,47 h6 v6 h-6 z" fill="#E69F00"/><rect x="26.0" y="44.0" width="9.0" height="12.0" rx="3" fill="#E69F00"/><rect x="37.2" y="44.0" width="10.6" height="16.6" rx="3" fill="#E69F00"/><rect x="50.0" y="42.3" width="12.2" height="21.2" rx="3" fill="#E69F00"/><rect x="64.4" y="38.4" width="13.8" height="25.8" rx="3" fill="#E69F00"/><rect x="80.4" y="33.5" width="15.4" height="30.4" rx="3" fill="#E69F00"/><rect x="98.0" y="29.6" width="17.0" height="35.0" rx="3" fill="#E69F00"/></g>
<text x="732.0" y="638.0" font-family="'Helvetica Neue', Helvetica, Arial, sans-serif" font-size="19" fill="#22262b" font-weight="600" font-style="normal" text-anchor="start" letter-spacing="0">Cestoda</text>
<text x="732.0" y="656.0" font-family="'Helvetica Neue', Helvetica, Arial, sans-serif" font-size="12.5" fill="#6b737c" font-weight="normal" font-style="normal" text-anchor="start" letter-spacing="0">tapeworms</text>
<text x="924.0" y="642.0" font-family="'Helvetica Neue', Helvetica, Arial, sans-serif" font-size="23" fill="#E69F00" font-weight="700" font-style="normal" text-anchor="end" letter-spacing="0">4</text>
<circle cx="679.0" cy="677.5" r="4.6" fill="#0072B2"/>
<text x="728.0" y="682.0" font-family="'Helvetica Neue', Helvetica, Arial, sans-serif" font-size="14.5" fill="#22262b" font-weight="normal" font-style="italic" text-anchor="start" letter-spacing="0">Echinococcus granulosus</text>
<circle cx="679.0" cy="707.5" r="4.6" fill="#0072B2"/>
<text x="728.0" y="712.0" font-family="'Helvetica Neue', Helvetica, Arial, sans-serif" font-size="14.5" fill="#22262b" font-weight="normal" font-style="italic" text-anchor="start" letter-spacing="0">Echinococcus multilocularis</text>
<circle cx="679.0" cy="737.5" r="4.6" fill="#0072B2"/>
<circle cx="690.0" cy="737.5" r="4.6" fill="#D55E00"/>
<circle cx="701.0" cy="737.5" r="4.6" fill="#009E73"/>
<text x="728.0" y="742.0" font-family="'Helvetica Neue', Helvetica, Arial, sans-serif" font-size="14.5" fill="#22262b" font-weight="normal" font-style="italic" text-anchor="start" letter-spacing="0">Hymenolepis diminuta</text>
<circle cx="679.0" cy="767.5" r="4.6" fill="#0072B2"/>
<text x="728.0" y="772.0" font-family="'Helvetica Neue', Helvetica, Arial, sans-serif" font-size="14.5" fill="#22262b" font-weight="normal" font-style="italic" text-anchor="start" letter-spacing="0">Taenia asiatica</text>
<rect x="962.0" y="298" width="280.0" height="280" rx="14" fill="#f6f7f9" stroke="#e2e5e9"/>
<rect x="962.0" y="298" width="280.0" height="5" rx="2.5" fill="#009E73"/>
<g transform="translate(976.0,314.0) scale(0.4600)"><path d="M22,86 C10,64 14,32 38,14 C46,8 54,10 56,16 C58,22 52,26 46,32 C30,48 26,68 30,86 C31,92 24,92 22,86 Z" fill="#009E73"/><ellipse cx="27" cy="66" rx="7" ry="9" transform="rotate(-18 27 66)" fill="#ffffff" opacity="0.85"/><path d="M44,20 L54,16" stroke="#ffffff" stroke-width="2.6" opacity="0.8" stroke-linecap="round"/><path d="M41,27 L51,23" stroke="#ffffff" stroke-width="2.6" opacity="0.8" stroke-linecap="round"/></g>
<text x="1034.0" y="338.0" font-family="'Helvetica Neue', Helvetica, Arial, sans-serif" font-size="19" fill="#22262b" font-weight="600" font-style="normal" text-anchor="start" letter-spacing="0">Apicomplexa</text>
<text x="1034.0" y="356.0" font-family="'Helvetica Neue', Helvetica, Arial, sans-serif" font-size="12.5" fill="#6b737c" font-weight="normal" font-style="normal" text-anchor="start" letter-spacing="0">apicomplexans</text>
<text x="1226.0" y="342.0" font-family="'Helvetica Neue', Helvetica, Arial, sans-serif" font-size="23" fill="#009E73" font-weight="700" font-style="normal" text-anchor="end" letter-spacing="0">6</text>
<circle cx="981.0" cy="377.5" r="4.6" fill="#0072B2"/>
<circle cx="992.0" cy="377.5" r="4.6" fill="#D55E00"/>
<circle cx="1003.0" cy="377.5" r="4.6" fill="#009E73"/>
<text x="1030.0" y="382.0" font-family="'Helvetica Neue', Helvetica, Arial, sans-serif" font-size="14.5" fill="#22262b" font-weight="normal" font-style="italic" text-anchor="start" letter-spacing="0">Cryptosporidium muris</text>
<circle cx="981.0" cy="407.5" r="4.6" fill="#0072B2"/>
<text x="1030.0" y="412.0" font-family="'Helvetica Neue', Helvetica, Arial, sans-serif" font-size="14.5" fill="#22262b" font-weight="normal" font-style="italic" text-anchor="start" letter-spacing="0">Cryptosporidium parvum</text>
<circle cx="981.0" cy="437.5" r="4.6" fill="#0072B2"/>
<text x="1030.0" y="442.0" font-family="'Helvetica Neue', Helvetica, Arial, sans-serif" font-size="14.5" fill="#22262b" font-weight="normal" font-style="italic" text-anchor="start" letter-spacing="0">Plasmodium falciparum</text>
<circle cx="981.0" cy="467.5" r="4.6" fill="#0072B2"/>
<text x="1030.0" y="472.0" font-family="'Helvetica Neue', Helvetica, Arial, sans-serif" font-size="14.5" fill="#22262b" font-weight="normal" font-style="italic" text-anchor="start" letter-spacing="0">Plasmodium knowlesi</text>
<circle cx="981.0" cy="497.5" r="4.6" fill="#0072B2"/>
<text x="1030.0" y="502.0" font-family="'Helvetica Neue', Helvetica, Arial, sans-serif" font-size="14.5" fill="#22262b" font-weight="normal" font-style="italic" text-anchor="start" letter-spacing="0">Plasmodium vivax</text>
<circle cx="981.0" cy="527.5" r="4.6" fill="#0072B2"/>
<text x="1030.0" y="532.0" font-family="'Helvetica Neue', Helvetica, Arial, sans-serif" font-size="14.5" fill="#22262b" font-weight="normal" font-style="italic" text-anchor="start" letter-spacing="0">Toxoplasma gondii</text>
<rect x="962.0" y="598" width="280.0" height="250" rx="14" fill="#f6f7f9" stroke="#e2e5e9"/>
<rect x="962.0" y="598" width="280.0" height="5" rx="2.5" fill="#CC79A7"/>
<g transform="translate(976.0,614.0) scale(0.4600)"><path d="M7.03,66.13 L8.12,67.60 L9.23,69.03 L10.37,70.42 L11.55,71.77 L12.79,73.07 L14.11,74.31 L15.53,75.48 L17.06,76.56 L18.73,77.53 L20.52,78.37 L22.45,79.05 L24.46,79.34 L26.48,79.19 L28.48,78.86 L30.43,78.34 L32.33,77.67 L34.17,76.86 L35.94,75.93 L37.65,74.89 L39.31,73.76 L40.91,72.55 L42.46,71.28 L43.97,69.95 L45.44,68.58 L46.87,67.17 L48.27,65.75 L49.63,64.30 L50.96,62.86 L52.26,61.43 L53.54,60.01 L54.78,58.63 L55.99,57.28 L57.17,55.99 L58.31,54.76 L59.42,53.60 L60.49,52.52 L61.52,51.52 L62.51,50.62 L63.44,49.81 L64.32,49.10 L65.15,48.47 L65.88,47.83 L66.53,47.09 L67.19,46.42 L67.89,45.82 L68.65,45.30 L69.48,44.86 L70.39,44.52 L71.41,44.28 L72.51,44.17 L73.71,44.20 L74.98,44.37 L76.31,44.68 L77.70,45.14 L79.11,45.73 L80.55,46.45 L82.01,47.29 L83.47,48.24 L84.93,49.29 L86.37,50.42 L87.81,51.62 L89.23,52.88 L90.63,54.20 L92.00,55.55 L92.00,55.55 L90.75,54.08 L89.52,52.60 L88.31,51.13 L87.13,49.66 L85.95,48.22 L84.78,46.80 L83.62,45.42 L82.45,44.08 L81.26,42.80 L80.05,41.56 L78.81,40.39 L77.52,39.28 L76.17,38.25 L74.74,37.31 L73.22,36.47 L71.61,35.75 L69.90,35.16 L68.10,34.73 L66.23,34.47 L64.31,34.38 L62.34,34.47 L60.37,34.72 L58.47,35.29 L56.68,36.10 L54.93,37.04 L53.24,38.07 L51.60,39.19 L50.01,40.39 L48.45,41.65 L46.94,42.96 L45.46,44.31 L44.01,45.69 L42.60,47.09 L41.21,48.50 L39.86,49.91 L38.54,51.30 L37.25,52.67 L35.98,53.99 L34.76,55.28 L33.56,56.50 L32.40,57.65 L31.29,58.73 L30.22,59.72 L29.19,60.62 L28.22,61.42 L27.31,62.13 L26.46,62.73 L25.67,63.24 L24.94,63.67 L24.27,64.02 L23.64,64.30 L23.04,64.53 L22.43,64.95 L21.73,65.51 L20.90,65.97 L19.94,66.33 L18.85,66.55 L17.64,66.63 L16.33,66.55 L14.95,66.32 L13.51,65.93 L12.02,65.40 L10.50,64.73 L8.97,63.94 Z" fill="#CC79A7"/><path d="M16,52 C30,34 44,60 58,40 C68,26 76,32 80,40" stroke="#CC79A7" stroke-width="3" fill="none" opacity="0.55" stroke-linecap="round"/><path d="M76,44 C86,36 92,30 96,22" stroke="#CC79A7" stroke-width="3.4" fill="none" stroke-linecap="round"/><ellipse cx="44" cy="58" rx="8" ry="6.5" fill="#ffffff" opacity="0.85"/><circle cx="66" cy="50" r="3.2" fill="#ffffff" opacity="0.85"/></g>
<text x="1034.0" y="638.0" font-family="'Helvetica Neue', Helvetica, Arial, sans-serif" font-size="19" fill="#22262b" font-weight="600" font-style="normal" text-anchor="start" letter-spacing="0">Kinetoplastida</text>
<text x="1034.0" y="656.0" font-family="'Helvetica Neue', Helvetica, Arial, sans-serif" font-size="12.5" fill="#6b737c" font-weight="normal" font-style="normal" text-anchor="start" letter-spacing="0">trypanosomatids</text>
<text x="1226.0" y="642.0" font-family="'Helvetica Neue', Helvetica, Arial, sans-serif" font-size="23" fill="#CC79A7" font-weight="700" font-style="normal" text-anchor="end" letter-spacing="0">5</text>
<circle cx="992.0" cy="677.5" r="4.6" fill="#D55E00"/>
<circle cx="1003.0" cy="677.5" r="4.6" fill="#009E73"/>
<text x="1030.0" y="682.0" font-family="'Helvetica Neue', Helvetica, Arial, sans-serif" font-size="14.5" fill="#22262b" font-weight="normal" font-style="italic" text-anchor="start" letter-spacing="0">Leishmania braziliensis</text>
<circle cx="981.0" cy="707.5" r="4.6" fill="#0072B2"/>
<text x="1030.0" y="712.0" font-family="'Helvetica Neue', Helvetica, Arial, sans-serif" font-size="14.5" fill="#22262b" font-weight="normal" font-style="italic" text-anchor="start" letter-spacing="0">Leishmania infantum</text>
<circle cx="981.0" cy="737.5" r="4.6" fill="#0072B2"/>
<text x="1030.0" y="742.0" font-family="'Helvetica Neue', Helvetica, Arial, sans-serif" font-size="14.5" fill="#22262b" font-weight="normal" font-style="italic" text-anchor="start" letter-spacing="0">Leishmania major</text>
<circle cx="981.0" cy="767.5" r="4.6" fill="#0072B2"/>
<text x="1030.0" y="772.0" font-family="'Helvetica Neue', Helvetica, Arial, sans-serif" font-size="14.5" fill="#22262b" font-weight="normal" font-style="italic" text-anchor="start" letter-spacing="0">Trypanosoma brucei</text>
<circle cx="981.0" cy="797.5" r="4.6" fill="#0072B2"/>
<text x="1030.0" y="802.0" font-family="'Helvetica Neue', Helvetica, Arial, sans-serif" font-size="14.5" fill="#22262b" font-weight="normal" font-style="italic" text-anchor="start" letter-spacing="0">Trypanosoma cruzi</text>
<rect x="1264.0" y="298" width="280.0" height="190" rx="14" fill="#f6f7f9" stroke="#e2e5e9"/>
<rect x="1264.0" y="298" width="280.0" height="5" rx="2.5" fill="#56B4E9"/>
<g transform="translate(1278.0,314.0) scale(0.4600)"><path d="M28,20 C44,8 62,12 70,24 C78,36 94,34 92,48 C90,62 76,62 74,74 C72,88 54,96 40,88 C26,80 30,68 20,62 C8,54 12,30 28,20 Z" fill="#56B4E9"/><circle cx="46" cy="50" r="11" fill="#ffffff" opacity="0.85"/><circle cx="46" cy="50" r="4" fill="#56B4E9" opacity="0.55"/><circle cx="68" cy="66" r="5" fill="#ffffff" opacity="0.5"/></g>
<text x="1336.0" y="338.0" font-family="'Helvetica Neue', Helvetica, Arial, sans-serif" font-size="19" fill="#22262b" font-weight="600" font-style="normal" text-anchor="start" letter-spacing="0">Other protozoa</text>
<text x="1336.0" y="356.0" font-family="'Helvetica Neue', Helvetica, Arial, sans-serif" font-size="12.5" fill="#6b737c" font-weight="normal" font-style="normal" text-anchor="start" letter-spacing="0">amoeba, flagellates</text>
<text x="1528.0" y="342.0" font-family="'Helvetica Neue', Helvetica, Arial, sans-serif" font-size="23" fill="#56B4E9" font-weight="700" font-style="normal" text-anchor="end" letter-spacing="0">3</text>
<circle cx="1283.0" cy="377.5" r="4.6" fill="#0072B2"/>
<text x="1332.0" y="382.0" font-family="'Helvetica Neue', Helvetica, Arial, sans-serif" font-size="14.5" fill="#22262b" font-weight="normal" font-style="italic" text-anchor="start" letter-spacing="0">Entamoeba histolytica</text>
<circle cx="1283.0" cy="407.5" r="4.6" fill="#0072B2"/>
<text x="1332.0" y="412.0" font-family="'Helvetica Neue', Helvetica, Arial, sans-serif" font-size="14.5" fill="#22262b" font-weight="normal" font-style="italic" text-anchor="start" letter-spacing="0">Giardia lamblia</text>
<circle cx="1283.0" cy="437.5" r="4.6" fill="#0072B2"/>
<text x="1332.0" y="442.0" font-family="'Helvetica Neue', Helvetica, Arial, sans-serif" font-size="14.5" fill="#22262b" font-weight="normal" font-style="italic" text-anchor="start" letter-spacing="0">Trichomonas vaginalis</text>
<rect x="1264.0" y="508" width="280.0" height="160" rx="14" fill="#f6f7f9" stroke="#e2e5e9"/>
<rect x="1264.0" y="508" width="280.0" height="5" rx="2.5" fill="#C9A227"/>
<g transform="translate(1278.0,524.0) scale(0.4600)"><ellipse cx="50" cy="50" rx="27" ry="42" fill="#C9A227"/><ellipse cx="50" cy="28" rx="9" ry="7" fill="#ffffff" opacity="0.55"/><path d="M32,40 C44,33 58,33 68,40" stroke="#ffffff" stroke-width="3" fill="none" opacity="0.8" stroke-linecap="round"/><path d="M32,49 C44,42 58,42 68,49" stroke="#ffffff" stroke-width="3" fill="none" opacity="0.8" stroke-linecap="round"/><path d="M32,58 C44,51 58,51 68,58" stroke="#ffffff" stroke-width="3" fill="none" opacity="0.8" stroke-linecap="round"/><path d="M32,67 C44,60 58,60 68,67" stroke="#ffffff" stroke-width="3" fill="none" opacity="0.8" stroke-linecap="round"/><path d="M32,76 C44,69 58,69 68,76" stroke="#ffffff" stroke-width="3" fill="none" opacity="0.8" stroke-linecap="round"/></g>
<text x="1336.0" y="548.0" font-family="'Helvetica Neue', Helvetica, Arial, sans-serif" font-size="19" fill="#22262b" font-weight="600" font-style="normal" text-anchor="start" letter-spacing="0">Microsporidia</text>
<text x="1336.0" y="566.0" font-family="'Helvetica Neue', Helvetica, Arial, sans-serif" font-size="12.5" fill="#6b737c" font-weight="normal" font-style="normal" text-anchor="start" letter-spacing="0">spore-forming fungi</text>
<text x="1528.0" y="552.0" font-family="'Helvetica Neue', Helvetica, Arial, sans-serif" font-size="23" fill="#C9A227" font-weight="700" font-style="normal" text-anchor="end" letter-spacing="0">2</text>
<circle cx="1283.0" cy="587.5" r="4.6" fill="#0072B2"/>
<text x="1332.0" y="592.0" font-family="'Helvetica Neue', Helvetica, Arial, sans-serif" font-size="14.5" fill="#22262b" font-weight="normal" font-style="italic" text-anchor="start" letter-spacing="0">Trachipleistophora hominis</text>
<circle cx="1283.0" cy="617.5" r="4.6" fill="#0072B2"/>
<text x="1332.0" y="622.0" font-family="'Helvetica Neue', Helvetica, Arial, sans-serif" font-size="14.5" fill="#22262b" font-weight="normal" font-style="italic" text-anchor="start" letter-spacing="0">Vittaforma corneae</text>
<text x="56.0" y="870.0" font-family="'Helvetica Neue', Helvetica, Arial, sans-serif" font-size="13" fill="#6b737c" font-weight="600" font-style="normal" text-anchor="start" letter-spacing="0">Host:</text>
<circle cx="100" cy="865.5" r="4.6" fill="#0072B2"/>
<text x="112.0" y="870.0" font-family="'Helvetica Neue', Helvetica, Arial, sans-serif" font-size="13" fill="#6b737c" font-weight="normal" font-style="normal" text-anchor="start" letter-spacing="0">Human</text>
<circle cx="166.0" cy="865.5" r="4.6" fill="#D55E00"/>
<text x="178.0" y="870.0" font-family="'Helvetica Neue', Helvetica, Arial, sans-serif" font-size="13" fill="#6b737c" font-weight="normal" font-style="normal" text-anchor="start" letter-spacing="0">Rat</text>
<circle cx="217.6" cy="865.5" r="4.6" fill="#009E73"/>
<text x="229.6" y="870.0" font-family="'Helvetica Neue', Helvetica, Arial, sans-serif" font-size="13" fill="#6b737c" font-weight="normal" font-style="normal" text-anchor="start" letter-spacing="0">Mouse</text>
<circle cx="283.6" cy="865.5" r="4.6" fill="#CC79A7"/>
<text x="295.6" y="870.0" font-family="'Helvetica Neue', Helvetica, Arial, sans-serif" font-size="13" fill="#6b737c" font-weight="normal" font-style="normal" text-anchor="start" letter-spacing="0">Pig</text>
</svg>